<svg width="68" height="60" xmlns="http://www.w3.org/2000/svg">
    <g fill="#5748F6" fill-rule="evenodd">
        <path d="M33.52 3.204c-.971 0-1.845.485-2.233 1.359L3.617 52.427a2.54 2.54 0 0 0 0 2.622c.486.777 1.359 1.359 2.233 1.359h55.34c.97 0 1.845-.486 2.232-1.36a2.54 2.54 0 0 0 0-2.621L35.752 4.563c-.484-.874-1.358-1.36-2.232-1.36m27.67 56.312H5.85A5.827 5.827 0 0 1 .8 56.602c-1.067-1.845-1.067-3.981 0-5.825L28.47 2.913C29.54 1.068 31.385 0 33.52 0c2.136 0 3.98 1.068 5.048 2.913l27.67 47.864c1.068 1.844 1.068 3.98 0 5.825-1.165 1.845-3.01 2.913-5.048 2.913"/>
        <path d="M33.81 41.36h-.68c-.872 0-1.552-.68-1.552-1.554v-23.3c0-.876.68-1.555 1.553-1.555h.68c.874 0 1.553.68 1.553 1.555v23.3c0 .873-.68 1.553-1.553 1.553M33.908 49.611h-.68c-.873 0-1.553-.68-1.553-1.554v-1.94c0-.875.68-1.555 1.553-1.555h.68c.874 0 1.553.68 1.553 1.554v1.941c0 .874-.68 1.554-1.553 1.554"/>
    </g>
</svg>
