<svg width="214" height="43" xmlns="http://www.w3.org/2000/svg">
    <g fill="none" fill-rule="evenodd">
        <path d="M24.01 6.83h-1.265c-.058-.96-.2-1.76-.426-2.396-.225-.637-.544-1.147-.955-1.529a3.357 3.357 0 0 0-1.5-.794c-.588-.147-1.274-.22-2.058-.22-.764 0-1.377.014-1.837.044-.46.03-.814.078-1.059.147-.245.069-.406.162-.485.28a.778.778 0 0 0-.117.44v15.406c0 .627.044 1.166.132 1.617.088.45.27.818.544 1.102.274.285.676.5 1.205.647.53.147 1.225.23 2.088.25V23H5.958v-1.176c.882-.02 1.588-.103 2.117-.25.53-.147.936-.362 1.22-.647.284-.284.47-.651.559-1.102.088-.451.132-.99.132-1.617V2.802a.864.864 0 0 0-.103-.44c-.069-.118-.21-.211-.426-.28-.216-.069-.525-.118-.926-.147-.402-.03-.926-.044-1.573-.044-.706 0-1.382.034-2.029.103-.647.068-1.215.264-1.705.588-.49.323-.887.813-1.19 1.47-.305.656-.466 1.582-.486 2.778H.401L.695.362h23.02l.295 6.468zm27.94 11.437c0 .744.034 1.347.102 1.808.069.46.216.813.441 1.058.226.245.54.417.941.515.402.098.936.156 1.602.176V23h-10.79v-1.176c.726-.02 1.309-.078 1.75-.176.441-.098.784-.265 1.029-.5.245-.235.407-.569.485-1 .078-.431.118-.99.118-1.676v-6.144H36.72v5.939c0 .744.04 1.347.118 1.808.078.46.235.813.47 1.058.236.245.574.417 1.015.515.44.098 1.024.156 1.749.176V23h-10.76v-1.176c.666-.02 1.2-.078 1.602-.176.402-.098.71-.265.926-.5.216-.235.362-.569.44-1 .08-.431.118-.99.118-1.676V4.89c0-.686-.034-1.24-.102-1.661-.069-.422-.201-.755-.397-1s-.476-.412-.838-.5c-.363-.088-.838-.152-1.426-.191V.362h10.143v1.176c-.667.02-1.2.078-1.602.176-.402.098-.71.275-.927.53-.215.254-.357.607-.426 1.058-.068.45-.103 1.049-.103 1.793v5.41h10.908V4.89c0-.686-.04-1.24-.118-1.661-.078-.422-.225-.755-.44-1-.217-.245-.525-.412-.927-.5-.402-.088-.936-.152-1.602-.191V.362h10.172v1.176c-.588.02-1.063.078-1.426.176-.362.098-.642.275-.838.53-.196.254-.328.607-.397 1.058-.068.45-.103 1.049-.103 1.793v13.172zm16.473-7.791c1.255 0 2.264-.04 3.028-.118.765-.078 1.358-.24 1.78-.485.42-.245.72-.603.896-1.073.176-.47.313-1.108.411-1.911h1.088v8.614h-1.088c-.117-.784-.274-1.411-.47-1.882a2.147 2.147 0 0 0-.94-1.073c-.432-.245-1.015-.401-1.75-.47-.735-.069-1.72-.103-2.955-.103v6.056c0 .628.084 1.157.25 1.588.167.431.446.78.838 1.044.392.264.911.45 1.558.558.647.108 1.44.162 2.382.162 1.117 0 2.063-.078 2.837-.235.774-.157 1.416-.431 1.925-.823.51-.392.922-.917 1.235-1.573.314-.657.578-1.485.794-2.485h1.176L80.948 23H61.014v-1.176c.647-.02 1.176-.078 1.588-.176.412-.098.725-.265.94-.5.217-.235.363-.569.442-1 .078-.431.117-.99.117-1.676V4.89c0-.686-.034-1.24-.102-1.661-.069-.422-.201-.755-.397-1s-.476-.412-.838-.5c-.363-.088-.838-.152-1.426-.191V.362h18.58l.206 5.762H78.86c-.117-.823-.303-1.504-.558-2.043a3.284 3.284 0 0 0-1.059-1.294c-.45-.323-1.034-.548-1.749-.676-.715-.127-1.592-.19-2.631-.19H69.54c-.51 0-.823.063-.94.19-.118.128-.177.427-.177.897v7.468zm49.382 12.818L104.781 4.743h-.117v12.642c0 .98.034 1.754.103 2.322.068.569.215 1.01.44 1.323.226.314.54.52.941.618.402.098.926.156 1.573.176V23H98.99v-1.176c.725-.02 1.308-.083 1.749-.191.44-.108.784-.309 1.029-.603.245-.294.406-.71.485-1.25.078-.538.118-1.268.118-2.19V5.772c0-.824-.04-1.505-.118-2.044-.079-.539-.225-.965-.441-1.279-.216-.313-.524-.534-.926-.661-.402-.128-.936-.21-1.602-.25V.362h8.202l11.848 16.993h.118V5.977c0-.96-.034-1.73-.103-2.308-.069-.578-.216-1.024-.441-1.337a1.575 1.575 0 0 0-.94-.618c-.403-.098-.927-.156-1.574-.176V.362h8.732v1.176c-.725.02-1.308.083-1.75.191-.44.108-.783.309-1.028.603s-.407.715-.485 1.264c-.079.549-.118 1.274-.118 2.176v17.522h-3.94zm20.296-12.818c1.255 0 2.264-.04 3.029-.118.764-.078 1.357-.24 1.778-.485.422-.245.72-.603.897-1.073.176-.47.314-1.108.411-1.911h1.088v8.614h-1.088c-.117-.784-.274-1.411-.47-1.882a2.147 2.147 0 0 0-.94-1.073c-.432-.245-1.015-.401-1.75-.47-.735-.069-1.72-.103-2.955-.103v6.056c0 .628.084 1.157.25 1.588.167.431.446.78.838 1.044.392.264.911.45 1.558.558.647.108 1.44.162 2.382.162 1.117 0 2.063-.078 2.837-.235.774-.157 1.416-.431 1.925-.823.51-.392.922-.917 1.235-1.573.314-.657.578-1.485.794-2.485h1.176l-.47 6.733h-19.934v-1.176c.647-.02 1.176-.078 1.588-.176.412-.098.725-.265.94-.5.217-.235.363-.569.442-1 .078-.431.118-.99.118-1.676V4.89c0-.686-.035-1.24-.103-1.661-.069-.422-.201-.755-.397-1s-.476-.412-.838-.5c-.363-.088-.838-.152-1.426-.191V.362h18.58l.207 5.762h-1.265c-.117-.823-.303-1.504-.558-2.043a3.284 3.284 0 0 0-1.059-1.294c-.45-.323-1.034-.548-1.749-.676-.715-.127-1.592-.19-2.631-.19h-3.322c-.51 0-.824.063-.941.19-.118.128-.177.427-.177.897v7.468zm44.022 6.82 3.969-11.348c.47-1.313.706-2.293.706-2.94 0-.608-.211-1.004-.633-1.19-.421-.187-1.073-.28-1.955-.28V.362h8.35v1.176c-.745 0-1.416.181-2.014.544-.598.363-1.053.975-1.367 1.837l-7.085 19.375h-2.617L174.36 7.771l-5.82 15.523H166.1l-6.233-17.17c-.372-1-.715-1.803-1.029-2.41-.314-.608-.647-1.069-1-1.382a2.635 2.635 0 0 0-1.146-.618 6.417 6.417 0 0 0-1.47-.147V.362h11.113v1.205c-1 0-1.685.093-2.058.28-.372.186-.558.495-.558.926 0 .157.01.308.029.456.02.147.059.313.118.5.058.186.132.416.22.69.088.275.21.618.367 1.03l4.117 11.847 4.762-12.994a8.24 8.24 0 0 0-.588-1.294 2.625 2.625 0 0 0-.69-.794 2.615 2.615 0 0 0-.897-.426 9.288 9.288 0 0 0-1.206-.22V.361h10.379v1.205c-.824 0-1.431.103-1.823.31-.392.205-.588.602-.588 1.19 0 .294.044.637.132 1.029.088.392.21.843.368 1.352l3.704 11.848zm15.004-1.793h1.146c.275 1.862 1.02 3.327 2.235 4.395 1.215 1.069 2.714 1.603 4.498 1.603a7.15 7.15 0 0 0 2-.265c.607-.176 1.126-.426 1.557-.75a3.469 3.469 0 0 0 1-1.146c.235-.441.353-.936.353-1.485 0-.47-.074-.877-.22-1.22-.148-.343-.427-.676-.839-1-.411-.323-.975-.651-1.69-.985a42.44 42.44 0 0 0-2.778-1.146c-2.294-.882-3.99-1.906-5.087-3.072-1.097-1.167-1.646-2.544-1.646-4.131 0-.921.176-1.764.53-2.529a5.752 5.752 0 0 1 1.484-1.97c.637-.548 1.401-.974 2.293-1.278.892-.304 1.877-.456 2.955-.456 1 0 1.94.157 2.822.47.882.314 1.754.784 2.617 1.412l.529-1.47h.706l.323 6.35h-1.147c-.47-1.607-1.205-2.837-2.205-3.69a5.187 5.187 0 0 0-3.469-1.279c-1.215 0-2.2.3-2.955.897-.754.598-1.131 1.367-1.131 2.308 0 .412.068.78.205 1.103.138.323.392.632.765.926.372.294.882.592 1.529.896.646.304 1.48.642 2.499 1.015 1.372.529 2.543 1.063 3.513 1.602.97.539 1.764 1.117 2.381 1.735.618.617 1.073 1.269 1.367 1.955.294.686.441 1.44.441 2.263 0 1-.215 1.911-.646 2.735a6.323 6.323 0 0 1-1.809 2.116c-.774.588-1.695 1.049-2.763 1.382-1.068.333-2.25.5-3.543.5-1.176 0-2.234-.162-3.175-.485-.94-.324-1.911-.848-2.91-1.573L198.272 23h-.705l-.441-7.497z" fill="#ffffff" fill-rule="nonzero"/>
        <text font-family="Roboto-Medium, Roboto" font-size="13.44" font-weight="400" letter-spacing="2.688" fill="silver" transform="translate(0 -6)">
                            <tspan x="22.028" y="47.25">REGIONAL VICTORIA</tspan>
                        </text>
    </g>
</svg>
