<svg width="16" height="16" xmlns="http://www.w3.org/2000/svg" xmlns:xlink="http://www.w3.org/1999/xlink">
    <defs>
        <path d="M14.37.361c-.895-.523-1.93-.478-3.108.137-1.336.705-2.128 1.775-2.377 3.21.86-.524 1.494-.513 1.902.034.407.546.373 1.252-.102 2.117-.974 1.89-1.687 2.834-2.14 2.834-.113 0-.215-.063-.306-.188-.09-.125-.192-.347-.305-.666a11.68 11.68 0 0 1-.289-.922l-.357-1.366a14.746 14.746 0 0 1-.22-1.144l-.204-1.28a12.268 12.268 0 0 0-.255-1.195c-.113-.433-.244-.774-.39-1.024A1.624 1.624 0 0 0 5.606.31c-.26-.148-.56-.188-.9-.12-.589.114-1.29.496-2.106 1.144-.815.649-1.38 1.156-1.698 1.52l-.78.888.61.853.34-.239c.25-.159.498-.278.747-.358.25-.08.464-.051.645.085.136.182.555 1.451 1.257 3.807.702 2.357 1.143 3.722 1.325 4.098.181.376.424.717.73 1.024.306.308.68.524 1.121.65.441.124.9.028 1.375-.291 1.2-.82 2.587-2.168 4.161-4.046 1.573-1.879 2.541-3.876 2.904-5.993.25-1.457-.074-2.447-.968-2.97" id="a"/>
    </defs>
    <g transform="translate(.2 1)" fill="none" fill-rule="evenodd">
        <mask id="b" fill="#fff">
            <use xlink:href="#a"/>
        </mask>
        <use fill="#000" xlink:href="#a"/>
        <g mask="url(#b)" fill="#FFF">
            <rect width="80" height="80" rx="6" transform="translate(-29 -25)"/>
        </g>
    </g>
</svg>
