<svg width="20" height="21" xmlns="http://www.w3.org/2000/svg" xmlns:xlink="http://www.w3.org/1999/xlink">
    <defs>
        <path d="M19 2.542a7.696 7.696 0 0 1-2.226.636c.827-.53 1.39-1.28 1.691-2.251a7.25 7.25 0 0 1-2.441 1.002c-.771-.865-1.713-1.297-2.827-1.297-1.07 0-1.984.402-2.74 1.204-.757.805-1.135 1.774-1.135 2.912 0 .303.03.613.087.932a10.236 10.236 0 0 1-4.433-1.274 11.293 11.293 0 0 1-3.51-3.024A4.126 4.126 0 0 0 .93 3.429a4.147 4.147 0 0 0 1.735 3.433A3.725 3.725 0 0 1 .93 6.339v.045C.915 7.386 1.208 8.257 1.808 9c.599.743 1.341 1.214 2.226 1.41a3.756 3.756 0 0 1-1.734.067 4.14 4.14 0 0 0 1.37 2.025c.657.53 1.407.803 2.248.819-1.399 1.167-2.997 1.751-4.796 1.751a8.81 8.81 0 0 1-.941-.047c1.798 1.229 3.774 1.842 5.93 1.842 1.37.016 2.655-.212 3.854-.681 1.2-.47 2.227-1.085 3.083-1.842a11.38 11.38 0 0 0 2.205-2.66 12.409 12.409 0 0 0 1.37-3.162c.3-1.09.45-2.19.45-3.297 0-.228-.007-.401-.022-.522a8.04 8.04 0 0 0 1.928-2.116L19 2.542z" id="a"/>
    </defs>
    <g transform="translate(.375 2.25)" fill="none" fill-rule="evenodd">
        <mask id="b" fill="#fff">
            <use xlink:href="#a"/>
        </mask>
        <g mask="url(#b)" fill="#5748F6">
            <rect width="100" height="100" rx="7.5" transform="translate(-31 -41)"/>
        </g>
    </g>
</svg>
