<svg width="16" height="16" xmlns="http://www.w3.org/2000/svg" xmlns:xlink="http://www.w3.org/1999/xlink">
    <defs>
        <path d="M16 2.034a6.157 6.157 0 0 1-1.781.508c.662-.423 1.113-1.024 1.353-1.8a5.8 5.8 0 0 1-1.953.8C13.002.853 12.25.507 11.358.507c-.856 0-1.587.32-2.192.963-.606.644-.908 1.42-.908 2.33 0 .241.023.49.07.745A8.188 8.188 0 0 1 4.78 3.525a9.035 9.035 0 0 1-2.809-2.42 3.3 3.3 0 0 0-.428 1.638A3.317 3.317 0 0 0 2.932 5.49a2.98 2.98 0 0 1-1.388-.418v.036c-.012.802.222 1.498.703 2.093.479.594 1.072.97 1.78 1.127a3.005 3.005 0 0 1-1.387.055c.206.655.57 1.195 1.096 1.62a2.873 2.873 0 0 0 1.798.655c-1.119.933-2.398 1.4-3.836 1.4-.274 0-.525-.012-.753-.037a8.23 8.23 0 0 0 4.744 1.474 8.116 8.116 0 0 0 3.083-.545c.96-.376 1.781-.868 2.466-1.474a9.104 9.104 0 0 0 1.764-2.129A9.927 9.927 0 0 0 14.46 4.18a3.59 3.59 0 0 0-.018-.418 6.432 6.432 0 0 0 1.542-1.692L16 2.034z" id="a"/>
    </defs>
    <g transform="translate(-.5 1)" fill="none" fill-rule="evenodd">
        <mask id="b" fill="#fff">
            <use xlink:href="#a"/>
        </mask>
        <g mask="url(#b)" fill="#FFF">
            <rect width="80" height="80" rx="6" transform="translate(-24 -33)"/>
        </g>
    </g>
</svg>
