<svg width="20" height="21" xmlns="http://www.w3.org/2000/svg" xmlns:xlink="http://www.w3.org/1999/xlink">
    <defs>
        <path d="M.076 12.788 6.53 6.53.057.95 0 1.315v11.088c0 .077.025.205.076.385zM7.35 5.78l.86.693 1.698 1.405 1.7-1.405.858-.693L18.957.179a1.073 1.073 0 0 0-.343-.058H1.184A.817.817 0 0 0 .859.18L7.35 5.78zm-6.166 7.815h17.43a.91.91 0 0 0 .324-.058l-6.51-6.294-2.52 2.06-2.52-2.06-6.51 6.294a.858.858 0 0 0 .306.058zm18.556-.808c.038-.142.057-.27.057-.385V1.315c0-.129-.019-.25-.057-.366L13.287 6.53l6.453 6.257z" id="link_solid_a"/>
    </defs>
    <g transform="translate(.125 3.875)" fill="none" fill-rule="evenodd">
        <mask id="link_solid_b" fill="#fff">
            <use xlink:href="#link_solid_a"/>
        </mask>
        <use fill="#000" xlink:href="#link_solid_a"/>
        <g mask="url(#link_solid_b)" fill="#5748F6">
            <rect width="100" height="100" rx="7.5" transform="translate(-40 -46)"/>
        </g>
    </g>
</svg>
