<svg width="16" height="16" xmlns="http://www.w3.org/2000/svg" xmlns:xlink="http://www.w3.org/1999/xlink">
    <defs>
        <path d="M1.288 14.456c.391.382.863.577 1.415.588.552.01 1.024-.18 1.416-.572.391-.392.587-.866.587-1.424 0-.557-.196-1.031-.587-1.423a1.93 1.93 0 0 0-1.416-.587c-.552 0-1.024.196-1.415.587A1.93 1.93 0 0 0 .7 13.041c0 .562.196 1.034.588 1.415m4.39-4.39c1.379 1.382 2.07 3.046 2.07 4.993h2.891a9.64 9.64 0 0 0-1.325-4.985 9.843 9.843 0 0 0-3.63-3.629A9.784 9.784 0 0 0 .7 5.12v2.876c1.937 0 3.596.691 4.977 2.07m-.248-6.21c1.506.642 2.8 1.505 3.885 2.59 1.084 1.083 1.947 2.378 2.59 3.884.642 1.506.964 3.083.964 4.729h2.891a14.334 14.334 0 0 0-1.19-5.843c-.803-1.847-1.877-3.448-3.222-4.804C10 3.057 8.4 1.983 6.543 1.19A14.74 14.74 0 0 0 .7 0v2.891c1.646 0 3.223.322 4.729.964" id="a"/>
    </defs>
    <g transform="translate(-.3 .6)" fill="none" fill-rule="evenodd">
        <mask id="b" fill="#fff">
            <use xlink:href="#a"/>
        </mask>
        <use fill="#000" xlink:href="#a"/>
        <g mask="url(#b)" fill="#FFF">
            <rect y="1" width="75" height="75" rx="6" transform="translate(-33 -31)"/>
        </g>
    </g>
</svg>
