<svg width="16" height="16" xmlns="http://www.w3.org/2000/svg" xmlns:xlink="http://www.w3.org/1999/xlink">
    <defs>
        <path d="M2.195.429h12a2 2 0 0 1 2 2v12a2 2 0 0 1-2 2h-12a2 2 0 0 1-2-2v-12a2 2 0 0 1 2-2zm6.25 12a4 4 0 1 0 0-8 4 4 0 0 0 0 8zm4.75-9.973a1 1 0 1 0 0 2 1 1 0 0 0 0-2z" id="a"/>
    </defs>
    <g transform="translate(-.195 .544)" fill="none" fill-rule="evenodd">
        <mask id="b" fill="#fff">
            <use xlink:href="#a"/>
        </mask>
        <use fill="#636567" xlink:href="#a"/>
        <g mask="url(#b)" fill="#FFF">
            <rect y="1" width="80" height="75" rx="6" transform="translate(-30 -27)"/>
        </g>
    </g>
</svg>
