<svg width="20" height="21" xmlns="http://www.w3.org/2000/svg" xmlns:xlink="http://www.w3.org/1999/xlink">
    <defs>
        <path d="M6.223 6.581V4.877c0-.257.014-.459.044-.604a1.12 1.12 0 0 1 .174-.409.736.736 0 0 1 .416-.28c.188-.057.444-.087.763-.087h1.726V.091H6.572c-1.6 0-2.75.373-3.45 1.12-.698.748-1.047 1.856-1.047 3.321v2.05H0v3.406h2.075v9.921h4.148V9.99h2.773l.372-3.408H6.223z" id="a"/>
    </defs>
    <g transform="translate(5 1)" fill="none" fill-rule="evenodd">
        <mask id="b" fill="#fff">
            <use xlink:href="#a"/>
        </mask>
        <g mask="url(#b)" fill="#5748F6">
            <rect width="100" height="100" rx="7.5" transform="translate(-50 -40)"/>
        </g>
    </g>
</svg>
