<svg width="25" height="24" viewBox="0 0 25 24" xmlns="http://www.w3.org/2000/svg" xmlns:xlink="http://www.w3.org/1999/xlink">
    <defs>
        <path d="M5.697 19.212.841 24.068l-.737-.736 4.874-4.874c-3.965-4.533-3.921-11.287.23-15.439 4.338-4.337 11.517-4.19 16.035.327 4.518 4.519 4.664 11.697.327 16.035-4.286 4.286-11.347 4.194-15.873-.169zm.546-.866c4.111 4.112 10.643 4.245 14.59.298 3.947-3.947 3.814-10.48-.297-14.59C16.424-.058 9.892-.191 5.945 3.756c-3.947 3.947-3.814 10.48.298 14.59z" id="a"/>
    </defs>
    <g transform="translate(-.056)" fill="none" fill-rule="evenodd">
        <mask id="b" fill="#fff">
            <use xlink:href="#a"/>
        </mask>
        <g mask="url(#b)" fill="#636567">
            <rect x="1" width="83" height="80" rx="6" transform="translate(-3 -28)"/>
        </g>
    </g>
</svg>
