<svg width="20" height="21" xmlns="http://www.w3.org/2000/svg" xmlns:xlink="http://www.w3.org/1999/xlink">
    <defs>
        <path d="M.677 17.5H4.58V5.755H.677V17.5zM2.655.093C1.319.093.445.969.445 2.122c0 1.127.848 2.03 2.158 2.03h.026c1.362 0 2.21-.903 2.21-2.03C4.811.969 3.99.092 2.654.092zM18.66 10.765V17.5h-3.904v-6.284c0-1.578-.565-2.656-1.978-2.656-1.079 0-1.72.726-2.003 1.429-.103.25-.13.6-.13.952V17.5H6.74s.053-10.643 0-11.745h3.906V7.42l-.026.037h.026V7.42c.519-.8 1.445-1.941 3.52-1.941 2.569 0 4.495 1.678 4.495 5.286z" id="a"/>
    </defs>
    <g transform="translate(.438 2.25)" fill="none" fill-rule="evenodd">
        <mask id="b" fill="#fff">
            <use xlink:href="#a"/>
        </mask>
        <use fill="#000" xlink:href="#a"/>
        <g mask="url(#b)" fill="#5748F6">
            <rect width="100" height="100" rx="7.5" transform="translate(-35 -33)"/>
        </g>
    </g>
</svg>
