<svg width="32" height="32" xmlns="http://www.w3.org/2000/svg" xmlns:xlink="http://www.w3.org/1999/xlink">
    <defs>
        <path id="a" d="M0 .443h32.4v32.4H0z"/>
        <path d="M16.6 2.237a6.772 6.772 0 0 1-1.96.56C15.37 2.33 15.866 1.67 16.13.816a6.38 6.38 0 0 1-2.148.881c-.679-.76-1.507-1.14-2.488-1.14-.941 0-1.746.353-2.41 1.059-.667.708-1 1.56-1 2.562 0 .266.026.54.077.82a9.007 9.007 0 0 1-3.901-1.12 9.938 9.938 0 0 1-3.09-2.662A3.63 3.63 0 0 0 .7 3.017a3.649 3.649 0 0 0 1.526 3.021 3.278 3.278 0 0 1-1.526-.46v.04C.685 6.5.943 7.266 1.47 7.92c.527.653 1.18 1.068 1.96 1.24a3.305 3.305 0 0 1-1.527.06c.227.72.628 1.314 1.206 1.782a3.16 3.16 0 0 0 1.978.72C3.857 12.75 2.45 13.263.868 13.263c-.302 0-.578-.014-.829-.041 1.582 1.08 3.322 1.62 5.219 1.62a8.928 8.928 0 0 0 3.391-.599c1.056-.413 1.96-.954 2.713-1.62.754-.667 1.4-1.448 1.94-2.342a10.92 10.92 0 0 0 1.603-5.683c0-.2-.007-.353-.02-.46a7.075 7.075 0 0 0 1.696-1.861l.019-.04z" id="c"/>
    </defs>
    <g fill="none" fill-rule="evenodd">
        <g>
            <mask id="b" fill="#fff">
                <use xlink:href="#a"/>
            </mask>
            <use fill="#5748F6" xlink:href="#a"/>
            <g mask="url(#b)" fill="#5748F6">
                <rect width="108" height="108" rx="8.1" transform="translate(-11 -31)"/>
            </g>
        </g>
        <g transform="translate(7.45 8.1)">
            <mask id="d" fill="#fff">
                <use xlink:href="#c"/>
            </mask>
            <g mask="url(#d)" fill="#FFF">
                <rect x="1" y="1" width="87.998" height="87.998" rx="6.6" transform="translate(-28 -37)"/>
            </g>
        </g>
    </g>
</svg>
