<svg width="20" height="20" viewBox="0 0 20 20" fill="none" xmlns="http://www.w3.org/2000/svg">
<path fill-rule="evenodd" clip-rule="evenodd" d="M19.3619 11.7558V8.69664C19.3411 8.36164 19.3361 8.02497 19.2952 7.69247C19.2169 7.0608 19.1602 6.42164 19.0202 5.80164C18.7894 4.78164 17.9394 4.1083 16.8944 4.00497C15.4944 3.8658 14.0927 3.79747 12.6869 3.7883C11.0252 3.77747 9.36189 3.7558 7.70022 3.77997C6.45522 3.7983 5.21022 3.87747 3.96522 3.9408C3.61105 3.95914 3.25272 3.98997 2.90605 4.0633C2.05522 4.24247 1.47772 4.76247 1.18772 5.57664C0.971055 6.1858 0.911055 6.82997 0.857721 7.4708C0.827721 7.8408 0.814388 8.21164 0.791888 8.58164C0.788555 8.62997 0.776888 8.6783 0.768555 8.72664V11.7558C0.786888 12.0466 0.791888 12.3383 0.826055 12.6266C0.901888 13.2691 0.965221 13.9158 1.08355 14.5508C1.28522 15.6375 2.14272 16.3683 3.23939 16.4775C4.63855 16.6158 6.04105 16.6841 7.44605 16.6933C9.10855 16.705 10.7711 16.7275 12.4327 16.7016C13.7177 16.6808 15.0019 16.5966 16.2861 16.5308C16.6011 16.515 16.9194 16.485 17.2269 16.4191C18.0711 16.2383 18.6461 15.7258 18.9402 14.9191C19.1586 14.32 19.2161 13.6858 19.2702 13.055C19.3027 12.6808 19.3152 12.305 19.3386 11.93C19.3419 11.8716 19.3536 11.8141 19.3619 11.7558M13.5794 10.0625C11.5894 11.0941 9.64022 12.1041 7.67105 13.125V6.97914C9.63939 8.00664 11.5894 9.02414 13.5794 10.0625" fill="black"/>
<mask id="mask0_1069_19730" style="mask-type:luminance" maskUnits="userSpaceOnUse" x="0" y="3" width="20" height="14">
<path fill-rule="evenodd" clip-rule="evenodd" d="M19.3619 11.7558V8.69664C19.3411 8.36164 19.3361 8.02497 19.2952 7.69247C19.2169 7.0608 19.1602 6.42164 19.0202 5.80164C18.7894 4.78164 17.9394 4.1083 16.8944 4.00497C15.4944 3.8658 14.0927 3.79747 12.6869 3.7883C11.0252 3.77747 9.36189 3.7558 7.70022 3.77997C6.45522 3.7983 5.21022 3.87747 3.96522 3.9408C3.61105 3.95914 3.25272 3.98997 2.90605 4.0633C2.05522 4.24247 1.47772 4.76247 1.18772 5.57664C0.971055 6.1858 0.911055 6.82997 0.857721 7.4708C0.827721 7.8408 0.814388 8.21164 0.791888 8.58164C0.788555 8.62997 0.776888 8.6783 0.768555 8.72664V11.7558C0.786888 12.0466 0.791888 12.3383 0.826055 12.6266C0.901888 13.2691 0.965221 13.9158 1.08355 14.5508C1.28522 15.6375 2.14272 16.3683 3.23939 16.4775C4.63855 16.6158 6.04105 16.6841 7.44605 16.6933C9.10855 16.705 10.7711 16.7275 12.4327 16.7016C13.7177 16.6808 15.0019 16.5966 16.2861 16.5308C16.6011 16.515 16.9194 16.485 17.2269 16.4191C18.0711 16.2383 18.6461 15.7258 18.9402 14.9191C19.1586 14.32 19.2161 13.6858 19.2702 13.055C19.3027 12.6808 19.3152 12.305 19.3386 11.93C19.3419 11.8716 19.3536 11.8141 19.3619 11.7558M13.5794 10.0625C11.5894 11.0941 9.64022 12.1041 7.67105 13.125V6.97914C9.63939 8.00664 11.5894 9.02414 13.5794 10.0625" fill="white"/>
</mask>
<g mask="url(#mask0_1069_19730)">
<rect x="-39.375" y="-36.875" width="100" height="100" rx="6" fill="white"/>
</g>
</svg>
