<svg width="131" height="92" viewBox="0 0 131 92" xmlns="http://www.w3.org/2000/svg">
    <g fill="none" fill-rule="evenodd">
        <path d="M75.47 66.34H4.426a3.221 3.221 0 0 1-3.225-3.216V4.418a3.22 3.22 0 0 1 3.225-3.217h92.736a3.221 3.221 0 0 1 3.226 3.217v19.894" stroke="#FEFEFE" stroke-width=".968" stroke-linejoin="round"/>
        <path stroke="#FEFEFE" stroke-width=".968" d="M92.274 44.893V29.75h35.885V77.6H95.984"/>
        <path d="M90.258 45.162v-17.02a3.221 3.221 0 0 1 3.226-3.217h33.466a3.221 3.221 0 0 1 3.225 3.216v52.273a3.221 3.221 0 0 1-3.225 3.217H95.58" stroke="#FEFEFE" stroke-width=".968"/>
        <path d="M78.566 44.627H93.08a3.221 3.221 0 0 1 3.225 3.217v39.808a3.221 3.221 0 0 1-3.225 3.216H78.566a3.221 3.221 0 0 1-3.226-3.216V47.844a3.221 3.221 0 0 1 3.226-3.217z" stroke="#FEFEFE" stroke-width=".968"/>
        <path d="M110.418 81.62c.668 0 1.21-.54 1.21-1.206 0-.666-.542-1.206-1.21-1.206-.668 0-1.21.54-1.21 1.206 0 .666.542 1.206 1.21 1.206M85.823 88.799c.668 0 1.21-.54 1.21-1.207 0-.665-.542-1.206-1.21-1.206-.668 0-1.21.54-1.21 1.206 0 .667.542 1.207 1.21 1.207" fill="#FEFEFE"/>
        <path d="M33.256 73.578h35.078" stroke="#FEFEFE" stroke-width=".968" stroke-linecap="round"/>
        <path d="M1.202 56.233H75.34M61.48 65.939l2.42 7.64M40.11 65.939l-2.419 7.64M75.34 84.165h20.966M75.34 50.74h20.966" stroke="#FEFEFE" stroke-width=".968"/>
    </g>
</svg>
